<?xml version="1.0" encoding="utf-8"?>
<!DOCTYPE svg PUBLIC "-//W3C//DTD SVG 1.1//EN" "http://www.w3.org/Graphics/SVG/1.1/DTD/svg11.dtd">
<svg xmlns="http://www.w3.org/2000/svg" version="1.1" width="512px" height="512px" style="shape-rendering:geometricPrecision; text-rendering:geometricPrecision; image-rendering:optimizeQuality; fill-rule:evenodd; clip-rule:evenodd" xmlns:xlink="http://www.w3.org/1999/xlink">
	<g>
		<path style="opacity:1" fill="#3e55b8" d="M 76.5,3.5 C 90.1667,3.5 103.833,3.5 117.5,3.5C 117.5,35.5 117.5,67.5 117.5,99.5C 136.167,99.5 154.833,99.5 173.5,99.5C 177.702,99.1832 181.702,99.5166 185.5,100.5C 182.167,100.5 178.833,100.5 175.5,100.5C 150.5,100.5 125.5,100.5 100.5,100.5C 100.5,113.167 100.5,125.833 100.5,138.5C 105.975,139.489 111.642,139.822 117.5,139.5C 117.5,152.167 117.5,164.833 117.5,177.5C 111.833,177.5 106.167,177.5 100.5,177.5C 100.5,190.5 100.5,203.5 100.5,216.5C 132.833,216.5 165.167,216.5 197.5,216.5C 189.684,217.492 181.684,217.826 173.5,217.5C 154.833,217.5 136.167,217.5 117.5,217.5C 117.5,272.833 117.5,328.167 117.5,383.5C 109.672,391.911 100.672,393.578 90.5,388.5C 87.4216,385.134 84.7549,382.134 82.5,379.5C 81.7321,378.737 81.2321,377.737 81,376.5C 80.5,355.836 80.3334,335.169 80.5,314.5C 80.1007,313.479 78.7674,313.146 76.5,313.5C 76.5,210.167 76.5,106.833 76.5,3.5 Z"/>
	</g>
	<g>
		<path style="opacity:1" fill="#4b56c0" d="M 117.5,3.5 C 136.167,3.5 154.833,3.5 173.5,3.5C 173.5,35.5 173.5,67.5 173.5,99.5C 154.833,99.5 136.167,99.5 117.5,99.5C 117.5,67.5 117.5,35.5 117.5,3.5 Z"/>
	</g>
	<g>
		<path style="opacity:1" fill="#5d58ca" d="M 173.5,3.5 C 198.833,3.5 224.167,3.5 249.5,3.5C 249.5,35.5 249.5,67.5 249.5,99.5C 264.676,99.1706 279.676,99.5039 294.5,100.5C 294.167,100.5 293.833,100.5 293.5,100.5C 257.5,100.5 221.5,100.5 185.5,100.5C 181.702,99.5166 177.702,99.1832 173.5,99.5C 173.5,67.5 173.5,35.5 173.5,3.5 Z"/>
	</g>
	<g>
		<path style="opacity:1" fill="#6f5ad4" d="M 249.5,3.5 C 272.5,3.5 295.5,3.5 318.5,3.5C 318.5,106.833 318.5,210.167 318.5,313.5C 295.5,313.5 272.5,313.5 249.5,313.5C 249.5,255.5 249.5,197.5 249.5,139.5C 264.5,139.5 279.5,139.5 294.5,139.5C 294.5,126.5 294.5,113.5 294.5,100.5C 279.676,99.5039 264.676,99.1706 249.5,99.5C 249.5,67.5 249.5,35.5 249.5,3.5 Z"/>
	</g>
	<g>
		<path style="opacity:1" fill="#7e5bdc" d="M 318.5,3.5 C 326.84,3.3336 335.173,3.50027 343.5,4C 349.241,4.96824 354.575,6.80157 359.5,9.5C 359.062,9.43456 358.728,9.60123 358.5,10C 360.333,11.1667 362.167,12.3333 364,13.5C 364.399,13.2716 364.565,12.9382 364.5,12.5C 365.492,12.3284 366.158,12.6618 366.5,13.5C 366.062,13.4346 365.728,13.6012 365.5,14C 366.731,15.4048 368.064,16.5714 369.5,17.5C 369.167,111.668 369.501,205.668 370.5,299.5C 363.132,305.684 354.798,310.018 345.5,312.5C 336.524,313.308 327.524,313.642 318.5,313.5C 318.5,210.167 318.5,106.833 318.5,3.5 Z"/>
	</g>
	<g>
		<path style="opacity:1" fill="#3353b1" d="M 76.5,3.5 C 76.5,106.833 76.5,210.167 76.5,313.5C 78.7674,313.146 80.1007,313.479 80.5,314.5C 66.5297,315.467 52.863,313.967 39.5,310C 34.9305,308.226 30.9305,305.726 27.5,302.5C 27.5,302.167 27.5,301.833 27.5,301.5C 27.5,205.833 27.5,110.167 27.5,14.5C 32.945,9.77741 39.2783,6.61074 46.5,5C 56.4434,3.63547 66.4434,3.13547 76.5,3.5 Z"/>
	</g>
	<g>
		<path style="opacity:0.914" fill="#be7f72" d="M 359.5,9.5 C 361.434,10.1103 363.101,11.1103 364.5,12.5C 364.565,12.9382 364.399,13.2716 364,13.5C 362.167,12.3333 360.333,11.1667 358.5,10C 358.728,9.60123 359.062,9.43456 359.5,9.5 Z"/>
	</g>
	<g>
		<path style="opacity:0.255" fill="#ceb68d" d="M 366.5,13.5 C 368.909,14.7007 370.909,16.3674 372.5,18.5C 371.391,18.4431 370.391,18.1098 369.5,17.5C 368.064,16.5714 366.731,15.4048 365.5,14C 365.728,13.6012 366.062,13.4346 366.5,13.5 Z"/>
	</g>
	<g>
		<path style="opacity:1" fill="#2d52ac" d="M 27.5,14.5 C 27.5,110.167 27.5,205.833 27.5,301.5C 25.7541,299.748 23.7541,298.415 21.5,297.5C 12.0709,289.32 6.23761,278.987 4,266.5C 3.16783,194.332 3.33449,122.332 4.5,50.5C 5.92381,48.4855 6.59047,46.1522 6.5,43.5C 9.83844,31.1468 16.8384,21.4802 27.5,14.5 Z"/>
	</g>
	<g>
		<path style="opacity:0.141" fill="#708b7c" d="M 374.5,20.5 C 376.587,21.5846 377.92,23.2512 378.5,25.5C 376.071,24.1449 374.738,22.4783 374.5,20.5 Z"/>
	</g>
	<g>
		<path style="opacity:1" fill="#865ce0" d="M 369.5,17.5 C 370.391,18.1098 371.391,18.4431 372.5,18.5C 373.5,18.8333 374.167,19.5 374.5,20.5C 374.738,22.4783 376.071,24.1449 378.5,25.5C 380.543,26.5794 381.876,28.246 382.5,30.5C 383.376,34.5821 385.043,38.2488 387.5,41.5C 389.417,44.8044 390.584,48.4711 391,52.5C 391.5,94.1653 391.667,135.832 391.5,177.5C 391.667,205.502 391.5,233.502 391,261.5C 389.803,267.589 388.303,273.589 386.5,279.5C 382.307,287.032 376.973,293.699 370.5,299.5C 369.501,205.668 369.167,111.668 369.5,17.5 Z"/>
	</g>
	<g>
		<path style="opacity:0.125" fill="#9fa694" d="M 382.5,30.5 C 384.957,33.7512 386.624,37.4179 387.5,41.5C 385.043,38.2488 383.376,34.5821 382.5,30.5 Z"/>
	</g>
	<g>
		<path style="opacity:0.984" fill="#a4bc6f" d="M 6.5,43.5 C 6.59047,46.1522 5.92381,48.4855 4.5,50.5C 4.40953,47.8478 5.07619,45.5145 6.5,43.5 Z"/>
	</g>
	<g>
		<path style="opacity:1" fill="#dbffe6" d="M 175.5,100.5 C 184.833,113.167 194.167,125.833 203.5,138.5C 169.167,138.5 134.833,138.5 100.5,138.5C 100.5,125.833 100.5,113.167 100.5,100.5C 125.5,100.5 150.5,100.5 175.5,100.5 Z"/>
	</g>
	<g>
		<path style="opacity:1" fill="#e9ffef" d="M 175.5,100.5 C 178.833,100.5 182.167,100.5 185.5,100.5C 221.5,100.5 257.5,100.5 293.5,100.5C 293.5,113.167 293.5,125.833 293.5,138.5C 263.5,138.5 233.5,138.5 203.5,138.5C 194.167,125.833 184.833,113.167 175.5,100.5 Z"/>
	</g>
	<g>
		<path style="opacity:1" fill="#bfcfe3" d="M 293.5,100.5 C 293.833,100.5 294.167,100.5 294.5,100.5C 294.5,113.5 294.5,126.5 294.5,139.5C 279.5,139.5 264.5,139.5 249.5,139.5C 233.167,139.5 216.833,139.5 200.5,139.5C 172.833,139.5 145.167,139.5 117.5,139.5C 111.642,139.822 105.975,139.489 100.5,138.5C 134.833,138.5 169.167,138.5 203.5,138.5C 233.5,138.5 263.5,138.5 293.5,138.5C 293.5,125.833 293.5,113.167 293.5,100.5 Z"/>
	</g>
	<g>
		<path style="opacity:1" fill="#5f58cb" d="M 200.5,139.5 C 216.833,139.5 233.167,139.5 249.5,139.5C 249.5,197.5 249.5,255.5 249.5,313.5C 245.958,313.187 242.625,313.521 239.5,314.5C 229.161,314.334 218.828,314.5 208.5,315C 205.953,317.054 203.286,318.887 200.5,320.5C 200.5,260.167 200.5,199.833 200.5,139.5 Z"/>
	</g>
	<g>
		<path style="opacity:1" fill="#cffcde" d="M 117.5,177.5 C 144.167,177.5 170.833,177.5 197.5,177.5C 197.5,190.5 197.5,203.5 197.5,216.5C 165.167,216.5 132.833,216.5 100.5,216.5C 100.5,203.5 100.5,190.5 100.5,177.5C 106.167,177.5 111.833,177.5 117.5,177.5 Z"/>
	</g>
	<g>
		<path style="opacity:1" fill="#5b4fd0" d="M 391.5,177.5 C 396.167,177.5 400.833,177.5 405.5,177.5C 408.962,178.482 412.629,178.815 416.5,178.5C 416.169,287.904 416.502,397.237 417.5,506.5C 414.484,506.159 411.818,504.993 409.5,503C 400.647,496.303 391.98,489.47 383.5,482.5C 384.329,481.668 385.162,482.001 386,483.5C 386.5,415.501 386.667,347.501 386.5,279.5C 388.303,273.589 389.803,267.589 391,261.5C 391.5,233.502 391.667,205.502 391.5,177.5 Z"/>
	</g>
	<g>
		<path style="opacity:1" fill="#5c54d6" d="M 416.5,178.5 C 427.5,178.5 438.5,178.5 449.5,178.5C 449.5,266.5 449.5,354.5 449.5,442.5C 447.167,442.5 444.833,442.5 442.5,442.5C 442.171,457.676 442.504,472.676 443.5,487.5C 441.451,503.245 432.784,509.579 417.5,506.5C 416.502,397.237 416.169,287.904 416.5,178.5 Z"/>
	</g>
	<g>
		<path style="opacity:1" fill="#5f5dda" d="M 405.5,177.5 C 424.836,177.333 444.17,177.5 463.5,178C 467.529,178.416 471.196,179.583 474.5,181.5C 476.849,183.341 479.515,184.674 482.5,185.5C 495.752,192.943 503.918,204.277 507,219.5C 507.667,280.167 507.667,340.833 507,401.5C 506.261,404.546 505.428,407.546 504.5,410.5C 502.616,411.382 501.283,412.882 500.5,415C 500.728,415.399 501.062,415.565 501.5,415.5C 499.375,420.743 496.042,425.077 491.5,428.5C 487.648,430.925 483.981,433.591 480.5,436.5C 472.93,441.146 464.596,443.479 455.5,443.5C 453.735,442.539 451.735,442.205 449.5,442.5C 449.5,354.5 449.5,266.5 449.5,178.5C 438.5,178.5 427.5,178.5 416.5,178.5C 412.629,178.815 408.962,178.482 405.5,177.5 Z"/>
	</g>
	<g>
		<path style="opacity:0.4" fill="#b5aa8b" d="M 474.5,181.5 C 477.754,181.794 480.421,183.127 482.5,185.5C 479.515,184.674 476.849,183.341 474.5,181.5 Z"/>
	</g>
	<g>
		<path style="opacity:1" fill="#4d56bf" d="M 173.5,217.5 C 173.168,258.67 173.501,299.67 174.5,340.5C 155.807,355.186 136.807,369.52 117.5,383.5C 117.5,328.167 117.5,272.833 117.5,217.5C 136.167,217.5 154.833,217.5 173.5,217.5 Z"/>
	</g>
	<g>
		<path style="opacity:1" fill="#5356c4" d="M 117.5,139.5 C 145.167,139.5 172.833,139.5 200.5,139.5C 200.5,199.833 200.5,260.167 200.5,320.5C 193.191,326.136 185.857,331.802 178.5,337.5C 177.527,337.987 176.527,338.487 175.5,339C 175.728,339.399 176.062,339.565 176.5,339.5C 176.158,340.338 175.492,340.672 174.5,340.5C 173.501,299.67 173.168,258.67 173.5,217.5C 181.684,217.826 189.684,217.492 197.5,216.5C 197.5,203.5 197.5,190.5 197.5,177.5C 170.833,177.5 144.167,177.5 117.5,177.5C 117.5,164.833 117.5,152.167 117.5,139.5 Z"/>
	</g>
	<g>
		<path style="opacity:1" fill="#5a48ca" d="M 386.5,279.5 C 386.667,347.501 386.5,415.501 386,483.5C 385.162,482.001 384.329,481.668 383.5,482.5C 382.508,482.672 381.842,482.338 381.5,481.5C 381.938,481.565 382.272,481.399 382.5,481C 381.667,480.167 380.833,479.333 380,478.5C 379.601,478.728 379.435,479.062 379.5,479.5C 378.508,479.672 377.842,479.338 377.5,478.5C 378.332,477.671 377.999,476.838 376.5,476C 374,474.167 371.5,472.333 369,470.5C 368.601,470.728 368.435,471.062 368.5,471.5C 359.859,465.519 351.525,459.186 343.5,452.5C 343.81,451.262 344.31,451.262 345,452.5C 345.5,405.835 345.667,359.168 345.5,312.5C 354.798,310.018 363.132,305.684 370.5,299.5C 376.973,293.699 382.307,287.032 386.5,279.5 Z"/>
	</g>
	<g>
		<path style="opacity:0.969" fill="#93cd78" d="M 21.5,297.5 C 23.7541,298.415 25.7541,299.748 27.5,301.5C 27.5,301.833 27.5,302.167 27.5,302.5C 24.9108,301.581 22.9108,299.914 21.5,297.5 Z"/>
	</g>
	<g>
		<path style="opacity:0.999" fill="#5835b8" d="M 241.5,314.5 C 254.167,314.5 266.833,314.5 279.5,314.5C 279.5,357.167 279.5,399.833 279.5,442.5C 275.958,442.187 272.625,442.521 269.5,443.5C 263.5,443.5 257.5,443.5 251.5,443.5C 248.375,442.521 245.042,442.187 241.5,442.5C 241.5,399.833 241.5,357.167 241.5,314.5 Z"/>
	</g>
	<g>
		<path style="opacity:0.999" fill="#593ec0" d="M 345.5,312.5 C 345.667,359.168 345.5,405.835 345,452.5C 344.31,451.262 343.81,451.262 343.5,452.5C 342.508,452.672 341.842,452.338 341.5,451.5C 342.332,450.671 341.999,449.838 340.5,449C 337.778,446.642 334.778,444.809 331.5,443.5C 310.833,443.5 290.167,443.5 269.5,443.5C 272.625,442.521 275.958,442.187 279.5,442.5C 279.5,399.833 279.5,357.167 279.5,314.5C 266.833,314.5 254.167,314.5 241.5,314.5C 240.833,314.5 240.167,314.5 239.5,314.5C 242.625,313.521 245.958,313.187 249.5,313.5C 272.5,313.5 295.5,313.5 318.5,313.5C 327.524,313.642 336.524,313.308 345.5,312.5 Z"/>
	</g>
	<g>
		<path style="opacity:1" fill="#582baf" d="M 239.5,314.5 C 240.167,314.5 240.833,314.5 241.5,314.5C 241.5,357.167 241.5,399.833 241.5,442.5C 245.042,442.187 248.375,442.521 251.5,443.5C 242.161,443.666 232.827,443.5 223.5,443C 219.11,442.741 215.11,441.574 211.5,439.5C 210.152,438.399 208.652,437.399 207,436.5C 206.601,436.728 206.435,437.062 206.5,437.5C 203.296,436.617 200.629,434.95 198.5,432.5C 194.472,428.141 190.472,423.807 186.5,419.5C 185.833,419.5 185.5,419.167 185.5,418.5C 185.31,415.414 184.31,413.414 182.5,412.5C 181.069,411.22 180.402,409.553 180.5,407.5C 180.938,407.565 181.272,407.399 181.5,407C 180.934,406.005 180.267,405.172 179.5,404.5C 178.325,400.958 177.659,397.291 177.5,393.5C 178.497,375.007 178.83,356.341 178.5,337.5C 185.857,331.802 193.191,326.136 200.5,320.5C 203.286,318.887 205.953,317.054 208.5,315C 218.828,314.5 229.161,314.334 239.5,314.5 Z"/>
	</g>
	<g>
		<path style="opacity:0.529" fill="#43e689" d="M 178.5,337.5 C 178.83,356.341 178.497,375.007 177.5,393.5C 177.83,375.326 177.497,357.326 176.5,339.5C 176.062,339.565 175.728,339.399 175.5,339C 176.527,338.487 177.527,337.987 178.5,337.5 Z"/>
	</g>
	<g>
		<path style="opacity:0.522" fill="#967c81" d="M 90.5,388.5 C 86.4351,386.767 83.7684,383.767 82.5,379.5C 84.7549,382.134 87.4216,385.134 90.5,388.5 Z"/>
	</g>
	<g>
		<path style="opacity:0.345" fill="#60b186" d="M 179.5,404.5 C 180.267,405.172 180.934,406.005 181.5,407C 181.272,407.399 180.938,407.565 180.5,407.5C 179.596,406.791 179.263,405.791 179.5,404.5 Z"/>
	</g>
	<g>
		<path style="opacity:0.102" fill="#ae9f86" d="M 504.5,410.5 C 503.737,412.368 502.737,414.035 501.5,415.5C 501.062,415.565 500.728,415.399 500.5,415C 501.283,412.882 502.616,411.382 504.5,410.5 Z"/>
	</g>
	<g>
		<path style="opacity:0.992" fill="#769558" d="M 185.5,418.5 C 183.992,416.819 182.992,414.819 182.5,412.5C 184.31,413.414 185.31,415.414 185.5,418.5 Z"/>
	</g>
	<g>
		<path style="opacity:0.494" fill="#8c8e81" d="M 186.5,419.5 C 190.472,423.807 194.472,428.141 198.5,432.5C 193.113,429.446 189.113,425.113 186.5,419.5 Z"/>
	</g>
	<g>
		<path style="opacity:0.106" fill="#a78b7b" d="M 491.5,428.5 C 488.728,432.387 485.061,435.054 480.5,436.5C 483.981,433.591 487.648,430.925 491.5,428.5 Z"/>
	</g>
	<g>
		<path style="opacity:0.075" fill="#75a04c" d="M 211.5,439.5 C 209.447,439.598 207.78,438.931 206.5,437.5C 206.435,437.062 206.601,436.728 207,436.5C 208.652,437.399 210.152,438.399 211.5,439.5 Z"/>
	</g>
	<g>
		<path style="opacity:0.875" fill="#7f8a6f" d="M 331.5,443.5 C 334.778,444.809 337.778,446.642 340.5,449C 341.999,449.838 342.332,450.671 341.5,451.5C 337.854,449.183 334.52,446.516 331.5,443.5 Z"/>
	</g>
	<g>
		<path style="opacity:0.357" fill="#da5d96" d="M 449.5,442.5 C 451.735,442.205 453.735,442.539 455.5,443.5C 451.5,443.5 447.5,443.5 443.5,443.5C 443.5,458.167 443.5,472.833 443.5,487.5C 442.504,472.676 442.171,457.676 442.5,442.5C 444.833,442.5 447.167,442.5 449.5,442.5 Z"/>
	</g>
	<g>
		<path style="opacity:0.435" fill="#8fae85" d="M 377.5,478.5 C 374.19,476.518 371.19,474.185 368.5,471.5C 368.435,471.062 368.601,470.728 369,470.5C 371.5,472.333 374,474.167 376.5,476C 377.999,476.838 378.332,477.671 377.5,478.5 Z"/>
	</g>
	<g>
		<path style="opacity:0.71" fill="#aae08c" d="M 381.5,481.5 C 380.5,481.167 379.833,480.5 379.5,479.5C 379.435,479.062 379.601,478.728 380,478.5C 380.833,479.333 381.667,480.167 382.5,481C 382.272,481.399 381.938,481.565 381.5,481.5 Z"/>
	</g>
</svg>
