<?xml version="1.0" standalone="no"?>
<!DOCTYPE svg PUBLIC "-//W3C//DTD SVG 20010904//EN"
 "http://www.w3.org/TR/2001/REC-SVG-20010904/DTD/svg10.dtd">
<svg width="456" height="456" viewBox="-282 -280 1000 1000" version="1.0" xmlns="http://www.w3.org/2000/svg"
 
 preserveAspectRatio="xMidYMid meet">

	<g transform="translate(0.000000,456.000000) scale(0.0890000,-0.089000)"
	fill="#FFFFFF" stroke="none">
		<path d="M2210 4967 c-424 -207 -490 -241 -490 -247 0 -3 516 -270 1148 -594
631 -323 1155 -595 1165 -604 16 -14 17 -58 17 -657 0 -598 -1 -644 -17 -663
-25 -28 -477 -262 -507 -262 -57 0 -56 -13 -56 665 l-1 620 -1170 603 -1171
604 -483 -240 c-403 -200 -486 -246 -506 -274 l-24 -33 -3 -1305 c-1 -718 0
-1315 3 -1327 15 -62 29 -70 1219 -665 1060 -531 1165 -581 1211 -582 46 0
132 40 1195 567 630 313 1164 579 1188 593 25 15 50 40 62 64 20 39 20 59 20
1337 0 1216 -1 1300 -18 1333 -16 33 -86 69 -1197 624 -902 450 -1191 590
-1225 593 -42 4 -69 -7 -360 -150z"/>
	</g>
</svg>